<mxfile host="app.diagrams.net" modified="2023-09-01T00:56:49.650Z" agent="Mozilla/5.0 (X11; Linux x86_64) AppleWebKit/537.36 (KHTML, like Gecko) Chrome/116.0.0.0 Safari/537.36" etag="aFvj1OsoOe1qRyjbTG9Y" version="21.7.1" type="github">
  <diagram name="PÃ¡gina-1" id="qakzhz1Y-ICmJNEB4eZH">
    <mxGraphModel dx="3520" dy="2244" grid="1" gridSize="10" guides="1" tooltips="1" connect="1" arrows="1" fold="1" page="1" pageScale="1" pageWidth="827" pageHeight="1169" math="0" shadow="0">
      <root>
        <mxCell id="0" />
        <mxCell id="1" parent="0" />
        <mxCell id="S7Mpnng9iP3Us5usMk4h-7" style="edgeStyle=orthogonalEdgeStyle;rounded=0;orthogonalLoop=1;jettySize=auto;html=1;exitX=0.5;exitY=1;exitDx=0;exitDy=0;entryX=0.5;entryY=0;entryDx=0;entryDy=0;" edge="1" parent="1" source="S7Mpnng9iP3Us5usMk4h-1" target="S7Mpnng9iP3Us5usMk4h-2">
          <mxGeometry relative="1" as="geometry" />
        </mxCell>
        <mxCell id="S7Mpnng9iP3Us5usMk4h-8" style="edgeStyle=orthogonalEdgeStyle;rounded=0;orthogonalLoop=1;jettySize=auto;html=1;exitX=0.5;exitY=1;exitDx=0;exitDy=0;" edge="1" parent="1" source="S7Mpnng9iP3Us5usMk4h-1" target="S7Mpnng9iP3Us5usMk4h-3">
          <mxGeometry relative="1" as="geometry" />
        </mxCell>
        <mxCell id="S7Mpnng9iP3Us5usMk4h-1" value="2x31" style="ellipse;whiteSpace=wrap;html=1;" vertex="1" parent="1">
          <mxGeometry x="120" y="960" width="120" height="80" as="geometry" />
        </mxCell>
        <mxCell id="S7Mpnng9iP3Us5usMk4h-2" value="1x31" style="ellipse;whiteSpace=wrap;html=1;" vertex="1" parent="1">
          <mxGeometry y="1080" width="120" height="80" as="geometry" />
        </mxCell>
        <mxCell id="S7Mpnng9iP3Us5usMk4h-3" value="1x31" style="ellipse;whiteSpace=wrap;html=1;" vertex="1" parent="1">
          <mxGeometry x="240" y="1080" width="120" height="80" as="geometry" />
        </mxCell>
        <mxCell id="S7Mpnng9iP3Us5usMk4h-9" style="edgeStyle=orthogonalEdgeStyle;rounded=0;orthogonalLoop=1;jettySize=auto;html=1;exitX=0.5;exitY=1;exitDx=0;exitDy=0;entryX=0.5;entryY=0;entryDx=0;entryDy=0;" edge="1" parent="1" source="S7Mpnng9iP3Us5usMk4h-4" target="S7Mpnng9iP3Us5usMk4h-5">
          <mxGeometry relative="1" as="geometry" />
        </mxCell>
        <mxCell id="S7Mpnng9iP3Us5usMk4h-10" style="edgeStyle=orthogonalEdgeStyle;rounded=0;orthogonalLoop=1;jettySize=auto;html=1;exitX=0.5;exitY=1;exitDx=0;exitDy=0;" edge="1" parent="1" source="S7Mpnng9iP3Us5usMk4h-4" target="S7Mpnng9iP3Us5usMk4h-6">
          <mxGeometry relative="1" as="geometry" />
        </mxCell>
        <mxCell id="S7Mpnng9iP3Us5usMk4h-4" value="2x31" style="ellipse;whiteSpace=wrap;html=1;" vertex="1" parent="1">
          <mxGeometry x="500" y="960" width="120" height="80" as="geometry" />
        </mxCell>
        <mxCell id="S7Mpnng9iP3Us5usMk4h-5" value="1x31" style="ellipse;whiteSpace=wrap;html=1;" vertex="1" parent="1">
          <mxGeometry x="380" y="1080" width="120" height="80" as="geometry" />
        </mxCell>
        <mxCell id="S7Mpnng9iP3Us5usMk4h-6" value="1x31" style="ellipse;whiteSpace=wrap;html=1;" vertex="1" parent="1">
          <mxGeometry x="620" y="1080" width="120" height="80" as="geometry" />
        </mxCell>
        <mxCell id="S7Mpnng9iP3Us5usMk4h-14" style="edgeStyle=orthogonalEdgeStyle;rounded=0;orthogonalLoop=1;jettySize=auto;html=1;exitX=0.5;exitY=1;exitDx=0;exitDy=0;" edge="1" parent="1" source="S7Mpnng9iP3Us5usMk4h-13" target="S7Mpnng9iP3Us5usMk4h-4">
          <mxGeometry relative="1" as="geometry" />
        </mxCell>
        <mxCell id="S7Mpnng9iP3Us5usMk4h-15" style="edgeStyle=orthogonalEdgeStyle;rounded=0;orthogonalLoop=1;jettySize=auto;html=1;exitX=0.5;exitY=1;exitDx=0;exitDy=0;entryX=0.5;entryY=0;entryDx=0;entryDy=0;" edge="1" parent="1" source="S7Mpnng9iP3Us5usMk4h-13" target="S7Mpnng9iP3Us5usMk4h-1">
          <mxGeometry relative="1" as="geometry" />
        </mxCell>
        <mxCell id="S7Mpnng9iP3Us5usMk4h-13" value="3x31" style="ellipse;whiteSpace=wrap;html=1;" vertex="1" parent="1">
          <mxGeometry x="320" y="810" width="120" height="80" as="geometry" />
        </mxCell>
        <mxCell id="S7Mpnng9iP3Us5usMk4h-40" style="edgeStyle=orthogonalEdgeStyle;rounded=0;orthogonalLoop=1;jettySize=auto;html=1;exitX=0.5;exitY=1;exitDx=0;exitDy=0;entryX=0.5;entryY=0;entryDx=0;entryDy=0;" edge="1" parent="1" source="S7Mpnng9iP3Us5usMk4h-42" target="S7Mpnng9iP3Us5usMk4h-43">
          <mxGeometry relative="1" as="geometry" />
        </mxCell>
        <mxCell id="S7Mpnng9iP3Us5usMk4h-41" style="edgeStyle=orthogonalEdgeStyle;rounded=0;orthogonalLoop=1;jettySize=auto;html=1;exitX=0.5;exitY=1;exitDx=0;exitDy=0;" edge="1" parent="1" source="S7Mpnng9iP3Us5usMk4h-42" target="S7Mpnng9iP3Us5usMk4h-44">
          <mxGeometry relative="1" as="geometry" />
        </mxCell>
        <mxCell id="S7Mpnng9iP3Us5usMk4h-42" value="2x31" style="ellipse;whiteSpace=wrap;html=1;" vertex="1" parent="1">
          <mxGeometry x="880" y="960" width="120" height="80" as="geometry" />
        </mxCell>
        <mxCell id="S7Mpnng9iP3Us5usMk4h-43" value="1x31" style="ellipse;whiteSpace=wrap;html=1;" vertex="1" parent="1">
          <mxGeometry x="760" y="1080" width="120" height="80" as="geometry" />
        </mxCell>
        <mxCell id="S7Mpnng9iP3Us5usMk4h-44" value="1x31" style="ellipse;whiteSpace=wrap;html=1;" vertex="1" parent="1">
          <mxGeometry x="1000" y="1080" width="120" height="80" as="geometry" />
        </mxCell>
        <mxCell id="S7Mpnng9iP3Us5usMk4h-45" style="edgeStyle=orthogonalEdgeStyle;rounded=0;orthogonalLoop=1;jettySize=auto;html=1;exitX=0.5;exitY=1;exitDx=0;exitDy=0;entryX=0.5;entryY=0;entryDx=0;entryDy=0;" edge="1" parent="1" source="S7Mpnng9iP3Us5usMk4h-47" target="S7Mpnng9iP3Us5usMk4h-48">
          <mxGeometry relative="1" as="geometry" />
        </mxCell>
        <mxCell id="S7Mpnng9iP3Us5usMk4h-46" style="edgeStyle=orthogonalEdgeStyle;rounded=0;orthogonalLoop=1;jettySize=auto;html=1;exitX=0.5;exitY=1;exitDx=0;exitDy=0;" edge="1" parent="1" source="S7Mpnng9iP3Us5usMk4h-47" target="S7Mpnng9iP3Us5usMk4h-49">
          <mxGeometry relative="1" as="geometry" />
        </mxCell>
        <mxCell id="S7Mpnng9iP3Us5usMk4h-47" value="2x31" style="ellipse;whiteSpace=wrap;html=1;" vertex="1" parent="1">
          <mxGeometry x="1260" y="960" width="120" height="80" as="geometry" />
        </mxCell>
        <mxCell id="S7Mpnng9iP3Us5usMk4h-48" value="1x31" style="ellipse;whiteSpace=wrap;html=1;" vertex="1" parent="1">
          <mxGeometry x="1140" y="1080" width="120" height="80" as="geometry" />
        </mxCell>
        <mxCell id="S7Mpnng9iP3Us5usMk4h-49" value="1x31" style="ellipse;whiteSpace=wrap;html=1;" vertex="1" parent="1">
          <mxGeometry x="1380" y="1080" width="120" height="80" as="geometry" />
        </mxCell>
        <mxCell id="S7Mpnng9iP3Us5usMk4h-50" style="edgeStyle=orthogonalEdgeStyle;rounded=0;orthogonalLoop=1;jettySize=auto;html=1;exitX=0.5;exitY=1;exitDx=0;exitDy=0;" edge="1" parent="1" source="S7Mpnng9iP3Us5usMk4h-52" target="S7Mpnng9iP3Us5usMk4h-47">
          <mxGeometry relative="1" as="geometry" />
        </mxCell>
        <mxCell id="S7Mpnng9iP3Us5usMk4h-51" style="edgeStyle=orthogonalEdgeStyle;rounded=0;orthogonalLoop=1;jettySize=auto;html=1;exitX=0.5;exitY=1;exitDx=0;exitDy=0;entryX=0.5;entryY=0;entryDx=0;entryDy=0;" edge="1" parent="1" source="S7Mpnng9iP3Us5usMk4h-52" target="S7Mpnng9iP3Us5usMk4h-42">
          <mxGeometry relative="1" as="geometry" />
        </mxCell>
        <mxCell id="S7Mpnng9iP3Us5usMk4h-52" value="3x31" style="ellipse;whiteSpace=wrap;html=1;" vertex="1" parent="1">
          <mxGeometry x="1080" y="810" width="120" height="80" as="geometry" />
        </mxCell>
        <mxCell id="S7Mpnng9iP3Us5usMk4h-54" style="edgeStyle=orthogonalEdgeStyle;rounded=0;orthogonalLoop=1;jettySize=auto;html=1;exitX=0.5;exitY=1;exitDx=0;exitDy=0;" edge="1" parent="1" source="S7Mpnng9iP3Us5usMk4h-53" target="S7Mpnng9iP3Us5usMk4h-52">
          <mxGeometry relative="1" as="geometry" />
        </mxCell>
        <mxCell id="S7Mpnng9iP3Us5usMk4h-55" style="edgeStyle=orthogonalEdgeStyle;rounded=0;orthogonalLoop=1;jettySize=auto;html=1;exitX=0.5;exitY=1;exitDx=0;exitDy=0;" edge="1" parent="1" source="S7Mpnng9iP3Us5usMk4h-53" target="S7Mpnng9iP3Us5usMk4h-13">
          <mxGeometry relative="1" as="geometry" />
        </mxCell>
        <mxCell id="S7Mpnng9iP3Us5usMk4h-53" value="4x31" style="ellipse;whiteSpace=wrap;html=1;" vertex="1" parent="1">
          <mxGeometry x="690" y="620" width="120" height="80" as="geometry" />
        </mxCell>
        <mxCell id="S7Mpnng9iP3Us5usMk4h-56" style="edgeStyle=orthogonalEdgeStyle;rounded=0;orthogonalLoop=1;jettySize=auto;html=1;exitX=0.5;exitY=1;exitDx=0;exitDy=0;entryX=0.5;entryY=0;entryDx=0;entryDy=0;" edge="1" parent="1" source="S7Mpnng9iP3Us5usMk4h-58" target="S7Mpnng9iP3Us5usMk4h-59">
          <mxGeometry relative="1" as="geometry" />
        </mxCell>
        <mxCell id="S7Mpnng9iP3Us5usMk4h-57" style="edgeStyle=orthogonalEdgeStyle;rounded=0;orthogonalLoop=1;jettySize=auto;html=1;exitX=0.5;exitY=1;exitDx=0;exitDy=0;" edge="1" parent="1" source="S7Mpnng9iP3Us5usMk4h-58" target="S7Mpnng9iP3Us5usMk4h-60">
          <mxGeometry relative="1" as="geometry" />
        </mxCell>
        <mxCell id="S7Mpnng9iP3Us5usMk4h-58" value="2x31" style="ellipse;whiteSpace=wrap;html=1;" vertex="1" parent="1">
          <mxGeometry x="1650" y="960" width="120" height="80" as="geometry" />
        </mxCell>
        <mxCell id="S7Mpnng9iP3Us5usMk4h-59" value="1x31" style="ellipse;whiteSpace=wrap;html=1;" vertex="1" parent="1">
          <mxGeometry x="1530" y="1080" width="120" height="80" as="geometry" />
        </mxCell>
        <mxCell id="S7Mpnng9iP3Us5usMk4h-60" value="1x31" style="ellipse;whiteSpace=wrap;html=1;" vertex="1" parent="1">
          <mxGeometry x="1770" y="1080" width="120" height="80" as="geometry" />
        </mxCell>
        <mxCell id="S7Mpnng9iP3Us5usMk4h-61" style="edgeStyle=orthogonalEdgeStyle;rounded=0;orthogonalLoop=1;jettySize=auto;html=1;exitX=0.5;exitY=1;exitDx=0;exitDy=0;entryX=0.5;entryY=0;entryDx=0;entryDy=0;" edge="1" parent="1" source="S7Mpnng9iP3Us5usMk4h-63" target="S7Mpnng9iP3Us5usMk4h-64">
          <mxGeometry relative="1" as="geometry" />
        </mxCell>
        <mxCell id="S7Mpnng9iP3Us5usMk4h-62" style="edgeStyle=orthogonalEdgeStyle;rounded=0;orthogonalLoop=1;jettySize=auto;html=1;exitX=0.5;exitY=1;exitDx=0;exitDy=0;" edge="1" parent="1" source="S7Mpnng9iP3Us5usMk4h-63" target="S7Mpnng9iP3Us5usMk4h-65">
          <mxGeometry relative="1" as="geometry" />
        </mxCell>
        <mxCell id="S7Mpnng9iP3Us5usMk4h-63" value="2x31" style="ellipse;whiteSpace=wrap;html=1;" vertex="1" parent="1">
          <mxGeometry x="2030" y="960" width="120" height="80" as="geometry" />
        </mxCell>
        <mxCell id="S7Mpnng9iP3Us5usMk4h-64" value="1x31" style="ellipse;whiteSpace=wrap;html=1;" vertex="1" parent="1">
          <mxGeometry x="1910" y="1080" width="120" height="80" as="geometry" />
        </mxCell>
        <mxCell id="S7Mpnng9iP3Us5usMk4h-65" value="1x31" style="ellipse;whiteSpace=wrap;html=1;" vertex="1" parent="1">
          <mxGeometry x="2150" y="1080" width="120" height="80" as="geometry" />
        </mxCell>
        <mxCell id="S7Mpnng9iP3Us5usMk4h-66" style="edgeStyle=orthogonalEdgeStyle;rounded=0;orthogonalLoop=1;jettySize=auto;html=1;exitX=0.5;exitY=1;exitDx=0;exitDy=0;" edge="1" parent="1" source="S7Mpnng9iP3Us5usMk4h-68" target="S7Mpnng9iP3Us5usMk4h-63">
          <mxGeometry relative="1" as="geometry" />
        </mxCell>
        <mxCell id="S7Mpnng9iP3Us5usMk4h-67" style="edgeStyle=orthogonalEdgeStyle;rounded=0;orthogonalLoop=1;jettySize=auto;html=1;exitX=0.5;exitY=1;exitDx=0;exitDy=0;entryX=0.5;entryY=0;entryDx=0;entryDy=0;" edge="1" parent="1" source="S7Mpnng9iP3Us5usMk4h-68" target="S7Mpnng9iP3Us5usMk4h-58">
          <mxGeometry relative="1" as="geometry" />
        </mxCell>
        <mxCell id="S7Mpnng9iP3Us5usMk4h-68" value="3x31" style="ellipse;whiteSpace=wrap;html=1;" vertex="1" parent="1">
          <mxGeometry x="1850" y="810" width="120" height="80" as="geometry" />
        </mxCell>
        <mxCell id="S7Mpnng9iP3Us5usMk4h-69" style="edgeStyle=orthogonalEdgeStyle;rounded=0;orthogonalLoop=1;jettySize=auto;html=1;exitX=0.5;exitY=1;exitDx=0;exitDy=0;entryX=0.5;entryY=0;entryDx=0;entryDy=0;" edge="1" parent="1" source="S7Mpnng9iP3Us5usMk4h-71" target="S7Mpnng9iP3Us5usMk4h-72">
          <mxGeometry relative="1" as="geometry" />
        </mxCell>
        <mxCell id="S7Mpnng9iP3Us5usMk4h-70" style="edgeStyle=orthogonalEdgeStyle;rounded=0;orthogonalLoop=1;jettySize=auto;html=1;exitX=0.5;exitY=1;exitDx=0;exitDy=0;" edge="1" parent="1" source="S7Mpnng9iP3Us5usMk4h-71" target="S7Mpnng9iP3Us5usMk4h-73">
          <mxGeometry relative="1" as="geometry" />
        </mxCell>
        <mxCell id="S7Mpnng9iP3Us5usMk4h-71" value="2x31" style="ellipse;whiteSpace=wrap;html=1;" vertex="1" parent="1">
          <mxGeometry x="2410" y="960" width="120" height="80" as="geometry" />
        </mxCell>
        <mxCell id="S7Mpnng9iP3Us5usMk4h-72" value="1x31" style="ellipse;whiteSpace=wrap;html=1;" vertex="1" parent="1">
          <mxGeometry x="2290" y="1080" width="120" height="80" as="geometry" />
        </mxCell>
        <mxCell id="S7Mpnng9iP3Us5usMk4h-73" value="1x31" style="ellipse;whiteSpace=wrap;html=1;" vertex="1" parent="1">
          <mxGeometry x="2530" y="1080" width="120" height="80" as="geometry" />
        </mxCell>
        <mxCell id="S7Mpnng9iP3Us5usMk4h-74" style="edgeStyle=orthogonalEdgeStyle;rounded=0;orthogonalLoop=1;jettySize=auto;html=1;exitX=0.5;exitY=1;exitDx=0;exitDy=0;entryX=0.5;entryY=0;entryDx=0;entryDy=0;" edge="1" parent="1" source="S7Mpnng9iP3Us5usMk4h-76" target="S7Mpnng9iP3Us5usMk4h-77">
          <mxGeometry relative="1" as="geometry" />
        </mxCell>
        <mxCell id="S7Mpnng9iP3Us5usMk4h-75" style="edgeStyle=orthogonalEdgeStyle;rounded=0;orthogonalLoop=1;jettySize=auto;html=1;exitX=0.5;exitY=1;exitDx=0;exitDy=0;" edge="1" parent="1" source="S7Mpnng9iP3Us5usMk4h-76" target="S7Mpnng9iP3Us5usMk4h-78">
          <mxGeometry relative="1" as="geometry" />
        </mxCell>
        <mxCell id="S7Mpnng9iP3Us5usMk4h-76" value="2x31" style="ellipse;whiteSpace=wrap;html=1;" vertex="1" parent="1">
          <mxGeometry x="2790" y="960" width="120" height="80" as="geometry" />
        </mxCell>
        <mxCell id="S7Mpnng9iP3Us5usMk4h-77" value="1x31" style="ellipse;whiteSpace=wrap;html=1;" vertex="1" parent="1">
          <mxGeometry x="2670" y="1080" width="120" height="80" as="geometry" />
        </mxCell>
        <mxCell id="S7Mpnng9iP3Us5usMk4h-78" value="1x31" style="ellipse;whiteSpace=wrap;html=1;" vertex="1" parent="1">
          <mxGeometry x="2910" y="1080" width="120" height="80" as="geometry" />
        </mxCell>
        <mxCell id="S7Mpnng9iP3Us5usMk4h-79" style="edgeStyle=orthogonalEdgeStyle;rounded=0;orthogonalLoop=1;jettySize=auto;html=1;exitX=0.5;exitY=1;exitDx=0;exitDy=0;" edge="1" parent="1" source="S7Mpnng9iP3Us5usMk4h-81" target="S7Mpnng9iP3Us5usMk4h-76">
          <mxGeometry relative="1" as="geometry" />
        </mxCell>
        <mxCell id="S7Mpnng9iP3Us5usMk4h-80" style="edgeStyle=orthogonalEdgeStyle;rounded=0;orthogonalLoop=1;jettySize=auto;html=1;exitX=0.5;exitY=1;exitDx=0;exitDy=0;entryX=0.5;entryY=0;entryDx=0;entryDy=0;" edge="1" parent="1" source="S7Mpnng9iP3Us5usMk4h-81" target="S7Mpnng9iP3Us5usMk4h-71">
          <mxGeometry relative="1" as="geometry" />
        </mxCell>
        <mxCell id="S7Mpnng9iP3Us5usMk4h-81" value="3x31" style="ellipse;whiteSpace=wrap;html=1;" vertex="1" parent="1">
          <mxGeometry x="2610" y="810" width="120" height="80" as="geometry" />
        </mxCell>
        <mxCell id="S7Mpnng9iP3Us5usMk4h-82" style="edgeStyle=orthogonalEdgeStyle;rounded=0;orthogonalLoop=1;jettySize=auto;html=1;exitX=0.5;exitY=1;exitDx=0;exitDy=0;" edge="1" parent="1" source="S7Mpnng9iP3Us5usMk4h-84" target="S7Mpnng9iP3Us5usMk4h-81">
          <mxGeometry relative="1" as="geometry" />
        </mxCell>
        <mxCell id="S7Mpnng9iP3Us5usMk4h-83" style="edgeStyle=orthogonalEdgeStyle;rounded=0;orthogonalLoop=1;jettySize=auto;html=1;exitX=0.5;exitY=1;exitDx=0;exitDy=0;" edge="1" parent="1" source="S7Mpnng9iP3Us5usMk4h-84" target="S7Mpnng9iP3Us5usMk4h-68">
          <mxGeometry relative="1" as="geometry" />
        </mxCell>
        <mxCell id="S7Mpnng9iP3Us5usMk4h-84" value="4x31" style="ellipse;whiteSpace=wrap;html=1;" vertex="1" parent="1">
          <mxGeometry x="2220" y="620" width="120" height="80" as="geometry" />
        </mxCell>
        <mxCell id="S7Mpnng9iP3Us5usMk4h-86" style="edgeStyle=orthogonalEdgeStyle;rounded=0;orthogonalLoop=1;jettySize=auto;html=1;exitX=0.5;exitY=1;exitDx=0;exitDy=0;" edge="1" parent="1" source="S7Mpnng9iP3Us5usMk4h-85" target="S7Mpnng9iP3Us5usMk4h-84">
          <mxGeometry relative="1" as="geometry" />
        </mxCell>
        <mxCell id="S7Mpnng9iP3Us5usMk4h-87" style="edgeStyle=orthogonalEdgeStyle;rounded=0;orthogonalLoop=1;jettySize=auto;html=1;exitX=0.5;exitY=1;exitDx=0;exitDy=0;" edge="1" parent="1" source="S7Mpnng9iP3Us5usMk4h-85" target="S7Mpnng9iP3Us5usMk4h-53">
          <mxGeometry relative="1" as="geometry" />
        </mxCell>
        <mxCell id="S7Mpnng9iP3Us5usMk4h-85" value="5x31" style="ellipse;whiteSpace=wrap;html=1;" vertex="1" parent="1">
          <mxGeometry x="1460" y="460" width="120" height="80" as="geometry" />
        </mxCell>
        <mxCell id="S7Mpnng9iP3Us5usMk4h-88" style="edgeStyle=orthogonalEdgeStyle;rounded=0;orthogonalLoop=1;jettySize=auto;html=1;exitX=0.5;exitY=1;exitDx=0;exitDy=0;entryX=0.5;entryY=0;entryDx=0;entryDy=0;" edge="1" parent="1" source="S7Mpnng9iP3Us5usMk4h-90" target="S7Mpnng9iP3Us5usMk4h-91">
          <mxGeometry relative="1" as="geometry" />
        </mxCell>
        <mxCell id="S7Mpnng9iP3Us5usMk4h-89" style="edgeStyle=orthogonalEdgeStyle;rounded=0;orthogonalLoop=1;jettySize=auto;html=1;exitX=0.5;exitY=1;exitDx=0;exitDy=0;" edge="1" parent="1" source="S7Mpnng9iP3Us5usMk4h-90" target="S7Mpnng9iP3Us5usMk4h-92">
          <mxGeometry relative="1" as="geometry" />
        </mxCell>
        <mxCell id="S7Mpnng9iP3Us5usMk4h-90" value="2x31" style="ellipse;whiteSpace=wrap;html=1;" vertex="1" parent="1">
          <mxGeometry x="3180" y="960" width="120" height="80" as="geometry" />
        </mxCell>
        <mxCell id="S7Mpnng9iP3Us5usMk4h-91" value="1x31" style="ellipse;whiteSpace=wrap;html=1;" vertex="1" parent="1">
          <mxGeometry x="3060" y="1080" width="120" height="80" as="geometry" />
        </mxCell>
        <mxCell id="S7Mpnng9iP3Us5usMk4h-92" value="1x31" style="ellipse;whiteSpace=wrap;html=1;" vertex="1" parent="1">
          <mxGeometry x="3300" y="1080" width="120" height="80" as="geometry" />
        </mxCell>
        <mxCell id="S7Mpnng9iP3Us5usMk4h-93" style="edgeStyle=orthogonalEdgeStyle;rounded=0;orthogonalLoop=1;jettySize=auto;html=1;exitX=0.5;exitY=1;exitDx=0;exitDy=0;entryX=0.5;entryY=0;entryDx=0;entryDy=0;" edge="1" parent="1" source="S7Mpnng9iP3Us5usMk4h-95" target="S7Mpnng9iP3Us5usMk4h-96">
          <mxGeometry relative="1" as="geometry" />
        </mxCell>
        <mxCell id="S7Mpnng9iP3Us5usMk4h-94" style="edgeStyle=orthogonalEdgeStyle;rounded=0;orthogonalLoop=1;jettySize=auto;html=1;exitX=0.5;exitY=1;exitDx=0;exitDy=0;" edge="1" parent="1" source="S7Mpnng9iP3Us5usMk4h-95" target="S7Mpnng9iP3Us5usMk4h-97">
          <mxGeometry relative="1" as="geometry" />
        </mxCell>
        <mxCell id="S7Mpnng9iP3Us5usMk4h-95" value="2x31" style="ellipse;whiteSpace=wrap;html=1;" vertex="1" parent="1">
          <mxGeometry x="3560" y="960" width="120" height="80" as="geometry" />
        </mxCell>
        <mxCell id="S7Mpnng9iP3Us5usMk4h-96" value="1x31" style="ellipse;whiteSpace=wrap;html=1;" vertex="1" parent="1">
          <mxGeometry x="3440" y="1080" width="120" height="80" as="geometry" />
        </mxCell>
        <mxCell id="S7Mpnng9iP3Us5usMk4h-97" value="1x31" style="ellipse;whiteSpace=wrap;html=1;" vertex="1" parent="1">
          <mxGeometry x="3680" y="1080" width="120" height="80" as="geometry" />
        </mxCell>
        <mxCell id="S7Mpnng9iP3Us5usMk4h-98" style="edgeStyle=orthogonalEdgeStyle;rounded=0;orthogonalLoop=1;jettySize=auto;html=1;exitX=0.5;exitY=1;exitDx=0;exitDy=0;" edge="1" parent="1" source="S7Mpnng9iP3Us5usMk4h-100" target="S7Mpnng9iP3Us5usMk4h-95">
          <mxGeometry relative="1" as="geometry" />
        </mxCell>
        <mxCell id="S7Mpnng9iP3Us5usMk4h-99" style="edgeStyle=orthogonalEdgeStyle;rounded=0;orthogonalLoop=1;jettySize=auto;html=1;exitX=0.5;exitY=1;exitDx=0;exitDy=0;entryX=0.5;entryY=0;entryDx=0;entryDy=0;" edge="1" parent="1" source="S7Mpnng9iP3Us5usMk4h-100" target="S7Mpnng9iP3Us5usMk4h-90">
          <mxGeometry relative="1" as="geometry" />
        </mxCell>
        <mxCell id="S7Mpnng9iP3Us5usMk4h-100" value="3x31" style="ellipse;whiteSpace=wrap;html=1;" vertex="1" parent="1">
          <mxGeometry x="3380" y="810" width="120" height="80" as="geometry" />
        </mxCell>
        <mxCell id="S7Mpnng9iP3Us5usMk4h-101" style="edgeStyle=orthogonalEdgeStyle;rounded=0;orthogonalLoop=1;jettySize=auto;html=1;exitX=0.5;exitY=1;exitDx=0;exitDy=0;entryX=0.5;entryY=0;entryDx=0;entryDy=0;" edge="1" parent="1" source="S7Mpnng9iP3Us5usMk4h-103" target="S7Mpnng9iP3Us5usMk4h-104">
          <mxGeometry relative="1" as="geometry" />
        </mxCell>
        <mxCell id="S7Mpnng9iP3Us5usMk4h-102" style="edgeStyle=orthogonalEdgeStyle;rounded=0;orthogonalLoop=1;jettySize=auto;html=1;exitX=0.5;exitY=1;exitDx=0;exitDy=0;" edge="1" parent="1" source="S7Mpnng9iP3Us5usMk4h-103" target="S7Mpnng9iP3Us5usMk4h-105">
          <mxGeometry relative="1" as="geometry" />
        </mxCell>
        <mxCell id="S7Mpnng9iP3Us5usMk4h-103" value="2x31" style="ellipse;whiteSpace=wrap;html=1;" vertex="1" parent="1">
          <mxGeometry x="3940" y="960" width="120" height="80" as="geometry" />
        </mxCell>
        <mxCell id="S7Mpnng9iP3Us5usMk4h-104" value="1x31" style="ellipse;whiteSpace=wrap;html=1;" vertex="1" parent="1">
          <mxGeometry x="3820" y="1080" width="120" height="80" as="geometry" />
        </mxCell>
        <mxCell id="S7Mpnng9iP3Us5usMk4h-105" value="1x31" style="ellipse;whiteSpace=wrap;html=1;" vertex="1" parent="1">
          <mxGeometry x="4060" y="1080" width="120" height="80" as="geometry" />
        </mxCell>
        <mxCell id="S7Mpnng9iP3Us5usMk4h-106" style="edgeStyle=orthogonalEdgeStyle;rounded=0;orthogonalLoop=1;jettySize=auto;html=1;exitX=0.5;exitY=1;exitDx=0;exitDy=0;entryX=0.5;entryY=0;entryDx=0;entryDy=0;" edge="1" parent="1" source="S7Mpnng9iP3Us5usMk4h-108" target="S7Mpnng9iP3Us5usMk4h-109">
          <mxGeometry relative="1" as="geometry" />
        </mxCell>
        <mxCell id="S7Mpnng9iP3Us5usMk4h-107" style="edgeStyle=orthogonalEdgeStyle;rounded=0;orthogonalLoop=1;jettySize=auto;html=1;exitX=0.5;exitY=1;exitDx=0;exitDy=0;" edge="1" parent="1" source="S7Mpnng9iP3Us5usMk4h-108" target="S7Mpnng9iP3Us5usMk4h-110">
          <mxGeometry relative="1" as="geometry" />
        </mxCell>
        <mxCell id="S7Mpnng9iP3Us5usMk4h-108" value="2x31" style="ellipse;whiteSpace=wrap;html=1;" vertex="1" parent="1">
          <mxGeometry x="4320" y="960" width="120" height="80" as="geometry" />
        </mxCell>
        <mxCell id="S7Mpnng9iP3Us5usMk4h-109" value="1x31" style="ellipse;whiteSpace=wrap;html=1;" vertex="1" parent="1">
          <mxGeometry x="4200" y="1080" width="120" height="80" as="geometry" />
        </mxCell>
        <mxCell id="S7Mpnng9iP3Us5usMk4h-110" value="1x31" style="ellipse;whiteSpace=wrap;html=1;" vertex="1" parent="1">
          <mxGeometry x="4440" y="1080" width="120" height="80" as="geometry" />
        </mxCell>
        <mxCell id="S7Mpnng9iP3Us5usMk4h-111" style="edgeStyle=orthogonalEdgeStyle;rounded=0;orthogonalLoop=1;jettySize=auto;html=1;exitX=0.5;exitY=1;exitDx=0;exitDy=0;" edge="1" parent="1" source="S7Mpnng9iP3Us5usMk4h-113" target="S7Mpnng9iP3Us5usMk4h-108">
          <mxGeometry relative="1" as="geometry" />
        </mxCell>
        <mxCell id="S7Mpnng9iP3Us5usMk4h-112" style="edgeStyle=orthogonalEdgeStyle;rounded=0;orthogonalLoop=1;jettySize=auto;html=1;exitX=0.5;exitY=1;exitDx=0;exitDy=0;entryX=0.5;entryY=0;entryDx=0;entryDy=0;" edge="1" parent="1" source="S7Mpnng9iP3Us5usMk4h-113" target="S7Mpnng9iP3Us5usMk4h-103">
          <mxGeometry relative="1" as="geometry" />
        </mxCell>
        <mxCell id="S7Mpnng9iP3Us5usMk4h-113" value="3x31" style="ellipse;whiteSpace=wrap;html=1;" vertex="1" parent="1">
          <mxGeometry x="4140" y="810" width="120" height="80" as="geometry" />
        </mxCell>
        <mxCell id="S7Mpnng9iP3Us5usMk4h-114" style="edgeStyle=orthogonalEdgeStyle;rounded=0;orthogonalLoop=1;jettySize=auto;html=1;exitX=0.5;exitY=1;exitDx=0;exitDy=0;" edge="1" parent="1" source="S7Mpnng9iP3Us5usMk4h-116" target="S7Mpnng9iP3Us5usMk4h-113">
          <mxGeometry relative="1" as="geometry" />
        </mxCell>
        <mxCell id="S7Mpnng9iP3Us5usMk4h-115" style="edgeStyle=orthogonalEdgeStyle;rounded=0;orthogonalLoop=1;jettySize=auto;html=1;exitX=0.5;exitY=1;exitDx=0;exitDy=0;" edge="1" parent="1" source="S7Mpnng9iP3Us5usMk4h-116" target="S7Mpnng9iP3Us5usMk4h-100">
          <mxGeometry relative="1" as="geometry" />
        </mxCell>
        <mxCell id="S7Mpnng9iP3Us5usMk4h-116" value="4x31" style="ellipse;whiteSpace=wrap;html=1;" vertex="1" parent="1">
          <mxGeometry x="3750" y="620" width="120" height="80" as="geometry" />
        </mxCell>
        <mxCell id="S7Mpnng9iP3Us5usMk4h-117" style="edgeStyle=orthogonalEdgeStyle;rounded=0;orthogonalLoop=1;jettySize=auto;html=1;exitX=0.5;exitY=1;exitDx=0;exitDy=0;entryX=0.5;entryY=0;entryDx=0;entryDy=0;" edge="1" parent="1" source="S7Mpnng9iP3Us5usMk4h-119" target="S7Mpnng9iP3Us5usMk4h-120">
          <mxGeometry relative="1" as="geometry" />
        </mxCell>
        <mxCell id="S7Mpnng9iP3Us5usMk4h-118" style="edgeStyle=orthogonalEdgeStyle;rounded=0;orthogonalLoop=1;jettySize=auto;html=1;exitX=0.5;exitY=1;exitDx=0;exitDy=0;" edge="1" parent="1" source="S7Mpnng9iP3Us5usMk4h-119" target="S7Mpnng9iP3Us5usMk4h-121">
          <mxGeometry relative="1" as="geometry" />
        </mxCell>
        <mxCell id="S7Mpnng9iP3Us5usMk4h-119" value="2x31" style="ellipse;whiteSpace=wrap;html=1;" vertex="1" parent="1">
          <mxGeometry x="4710" y="960" width="120" height="80" as="geometry" />
        </mxCell>
        <mxCell id="S7Mpnng9iP3Us5usMk4h-120" value="1x31" style="ellipse;whiteSpace=wrap;html=1;" vertex="1" parent="1">
          <mxGeometry x="4590" y="1080" width="120" height="80" as="geometry" />
        </mxCell>
        <mxCell id="S7Mpnng9iP3Us5usMk4h-121" value="1x31" style="ellipse;whiteSpace=wrap;html=1;" vertex="1" parent="1">
          <mxGeometry x="4830" y="1080" width="120" height="80" as="geometry" />
        </mxCell>
        <mxCell id="S7Mpnng9iP3Us5usMk4h-122" style="edgeStyle=orthogonalEdgeStyle;rounded=0;orthogonalLoop=1;jettySize=auto;html=1;exitX=0.5;exitY=1;exitDx=0;exitDy=0;entryX=0.5;entryY=0;entryDx=0;entryDy=0;" edge="1" parent="1" source="S7Mpnng9iP3Us5usMk4h-124" target="S7Mpnng9iP3Us5usMk4h-125">
          <mxGeometry relative="1" as="geometry" />
        </mxCell>
        <mxCell id="S7Mpnng9iP3Us5usMk4h-123" style="edgeStyle=orthogonalEdgeStyle;rounded=0;orthogonalLoop=1;jettySize=auto;html=1;exitX=0.5;exitY=1;exitDx=0;exitDy=0;" edge="1" parent="1" source="S7Mpnng9iP3Us5usMk4h-124" target="S7Mpnng9iP3Us5usMk4h-126">
          <mxGeometry relative="1" as="geometry" />
        </mxCell>
        <mxCell id="S7Mpnng9iP3Us5usMk4h-124" value="2x31" style="ellipse;whiteSpace=wrap;html=1;" vertex="1" parent="1">
          <mxGeometry x="5090" y="960" width="120" height="80" as="geometry" />
        </mxCell>
        <mxCell id="S7Mpnng9iP3Us5usMk4h-125" value="1x31" style="ellipse;whiteSpace=wrap;html=1;" vertex="1" parent="1">
          <mxGeometry x="4970" y="1080" width="120" height="80" as="geometry" />
        </mxCell>
        <mxCell id="S7Mpnng9iP3Us5usMk4h-126" value="1x31" style="ellipse;whiteSpace=wrap;html=1;" vertex="1" parent="1">
          <mxGeometry x="5210" y="1080" width="120" height="80" as="geometry" />
        </mxCell>
        <mxCell id="S7Mpnng9iP3Us5usMk4h-127" style="edgeStyle=orthogonalEdgeStyle;rounded=0;orthogonalLoop=1;jettySize=auto;html=1;exitX=0.5;exitY=1;exitDx=0;exitDy=0;" edge="1" parent="1" source="S7Mpnng9iP3Us5usMk4h-129" target="S7Mpnng9iP3Us5usMk4h-124">
          <mxGeometry relative="1" as="geometry" />
        </mxCell>
        <mxCell id="S7Mpnng9iP3Us5usMk4h-128" style="edgeStyle=orthogonalEdgeStyle;rounded=0;orthogonalLoop=1;jettySize=auto;html=1;exitX=0.5;exitY=1;exitDx=0;exitDy=0;entryX=0.5;entryY=0;entryDx=0;entryDy=0;" edge="1" parent="1" source="S7Mpnng9iP3Us5usMk4h-129" target="S7Mpnng9iP3Us5usMk4h-119">
          <mxGeometry relative="1" as="geometry" />
        </mxCell>
        <mxCell id="S7Mpnng9iP3Us5usMk4h-129" value="3x31" style="ellipse;whiteSpace=wrap;html=1;" vertex="1" parent="1">
          <mxGeometry x="4910" y="810" width="120" height="80" as="geometry" />
        </mxCell>
        <mxCell id="S7Mpnng9iP3Us5usMk4h-130" style="edgeStyle=orthogonalEdgeStyle;rounded=0;orthogonalLoop=1;jettySize=auto;html=1;exitX=0.5;exitY=1;exitDx=0;exitDy=0;entryX=0.5;entryY=0;entryDx=0;entryDy=0;" edge="1" parent="1" source="S7Mpnng9iP3Us5usMk4h-132" target="S7Mpnng9iP3Us5usMk4h-133">
          <mxGeometry relative="1" as="geometry" />
        </mxCell>
        <mxCell id="S7Mpnng9iP3Us5usMk4h-131" style="edgeStyle=orthogonalEdgeStyle;rounded=0;orthogonalLoop=1;jettySize=auto;html=1;exitX=0.5;exitY=1;exitDx=0;exitDy=0;" edge="1" parent="1" source="S7Mpnng9iP3Us5usMk4h-132" target="S7Mpnng9iP3Us5usMk4h-134">
          <mxGeometry relative="1" as="geometry" />
        </mxCell>
        <mxCell id="S7Mpnng9iP3Us5usMk4h-132" value="2x31" style="ellipse;whiteSpace=wrap;html=1;" vertex="1" parent="1">
          <mxGeometry x="5470" y="960" width="120" height="80" as="geometry" />
        </mxCell>
        <mxCell id="S7Mpnng9iP3Us5usMk4h-133" value="1x31" style="ellipse;whiteSpace=wrap;html=1;" vertex="1" parent="1">
          <mxGeometry x="5350" y="1080" width="120" height="80" as="geometry" />
        </mxCell>
        <mxCell id="S7Mpnng9iP3Us5usMk4h-134" value="1x31" style="ellipse;whiteSpace=wrap;html=1;" vertex="1" parent="1">
          <mxGeometry x="5590" y="1080" width="120" height="80" as="geometry" />
        </mxCell>
        <mxCell id="S7Mpnng9iP3Us5usMk4h-135" style="edgeStyle=orthogonalEdgeStyle;rounded=0;orthogonalLoop=1;jettySize=auto;html=1;exitX=0.5;exitY=1;exitDx=0;exitDy=0;entryX=0.5;entryY=0;entryDx=0;entryDy=0;" edge="1" parent="1" source="S7Mpnng9iP3Us5usMk4h-137" target="S7Mpnng9iP3Us5usMk4h-138">
          <mxGeometry relative="1" as="geometry" />
        </mxCell>
        <mxCell id="S7Mpnng9iP3Us5usMk4h-136" style="edgeStyle=orthogonalEdgeStyle;rounded=0;orthogonalLoop=1;jettySize=auto;html=1;exitX=0.5;exitY=1;exitDx=0;exitDy=0;" edge="1" parent="1" source="S7Mpnng9iP3Us5usMk4h-137" target="S7Mpnng9iP3Us5usMk4h-139">
          <mxGeometry relative="1" as="geometry" />
        </mxCell>
        <mxCell id="S7Mpnng9iP3Us5usMk4h-137" value="1x31 Naturaleza" style="ellipse;whiteSpace=wrap;html=1;" vertex="1" parent="1">
          <mxGeometry x="5850" y="960" width="120" height="80" as="geometry" />
        </mxCell>
        <mxCell id="S7Mpnng9iP3Us5usMk4h-138" value="1x31" style="ellipse;whiteSpace=wrap;html=1;" vertex="1" parent="1">
          <mxGeometry x="5730" y="1080" width="120" height="80" as="geometry" />
        </mxCell>
        <mxCell id="S7Mpnng9iP3Us5usMk4h-139" value="&amp;nbsp;Naturaleza" style="ellipse;whiteSpace=wrap;html=1;" vertex="1" parent="1">
          <mxGeometry x="5970" y="1080" width="120" height="80" as="geometry" />
        </mxCell>
        <mxCell id="S7Mpnng9iP3Us5usMk4h-140" style="edgeStyle=orthogonalEdgeStyle;rounded=0;orthogonalLoop=1;jettySize=auto;html=1;exitX=0.5;exitY=1;exitDx=0;exitDy=0;" edge="1" parent="1" source="S7Mpnng9iP3Us5usMk4h-142" target="S7Mpnng9iP3Us5usMk4h-137">
          <mxGeometry relative="1" as="geometry" />
        </mxCell>
        <mxCell id="S7Mpnng9iP3Us5usMk4h-141" style="edgeStyle=orthogonalEdgeStyle;rounded=0;orthogonalLoop=1;jettySize=auto;html=1;exitX=0.5;exitY=1;exitDx=0;exitDy=0;entryX=0.5;entryY=0;entryDx=0;entryDy=0;" edge="1" parent="1" source="S7Mpnng9iP3Us5usMk4h-142" target="S7Mpnng9iP3Us5usMk4h-132">
          <mxGeometry relative="1" as="geometry" />
        </mxCell>
        <mxCell id="S7Mpnng9iP3Us5usMk4h-142" value="2x31 Naturaleza" style="ellipse;whiteSpace=wrap;html=1;" vertex="1" parent="1">
          <mxGeometry x="5670" y="810" width="120" height="80" as="geometry" />
        </mxCell>
        <mxCell id="S7Mpnng9iP3Us5usMk4h-143" style="edgeStyle=orthogonalEdgeStyle;rounded=0;orthogonalLoop=1;jettySize=auto;html=1;exitX=0.5;exitY=1;exitDx=0;exitDy=0;" edge="1" parent="1" source="S7Mpnng9iP3Us5usMk4h-145" target="S7Mpnng9iP3Us5usMk4h-142">
          <mxGeometry relative="1" as="geometry" />
        </mxCell>
        <mxCell id="S7Mpnng9iP3Us5usMk4h-144" style="edgeStyle=orthogonalEdgeStyle;rounded=0;orthogonalLoop=1;jettySize=auto;html=1;exitX=0.5;exitY=1;exitDx=0;exitDy=0;" edge="1" parent="1" source="S7Mpnng9iP3Us5usMk4h-145" target="S7Mpnng9iP3Us5usMk4h-129">
          <mxGeometry relative="1" as="geometry" />
        </mxCell>
        <mxCell id="S7Mpnng9iP3Us5usMk4h-145" value="3x31 Naturaleza" style="ellipse;whiteSpace=wrap;html=1;" vertex="1" parent="1">
          <mxGeometry x="5280" y="620" width="120" height="80" as="geometry" />
        </mxCell>
        <mxCell id="S7Mpnng9iP3Us5usMk4h-146" style="edgeStyle=orthogonalEdgeStyle;rounded=0;orthogonalLoop=1;jettySize=auto;html=1;exitX=0.5;exitY=1;exitDx=0;exitDy=0;" edge="1" parent="1" source="S7Mpnng9iP3Us5usMk4h-148" target="S7Mpnng9iP3Us5usMk4h-145">
          <mxGeometry relative="1" as="geometry" />
        </mxCell>
        <mxCell id="S7Mpnng9iP3Us5usMk4h-147" style="edgeStyle=orthogonalEdgeStyle;rounded=0;orthogonalLoop=1;jettySize=auto;html=1;exitX=0.5;exitY=1;exitDx=0;exitDy=0;" edge="1" parent="1" source="S7Mpnng9iP3Us5usMk4h-148" target="S7Mpnng9iP3Us5usMk4h-116">
          <mxGeometry relative="1" as="geometry" />
        </mxCell>
        <mxCell id="S7Mpnng9iP3Us5usMk4h-148" value="4x31 Naturaleza" style="ellipse;whiteSpace=wrap;html=1;" vertex="1" parent="1">
          <mxGeometry x="4520" y="460" width="120" height="80" as="geometry" />
        </mxCell>
        <mxCell id="S7Mpnng9iP3Us5usMk4h-150" style="edgeStyle=orthogonalEdgeStyle;rounded=0;orthogonalLoop=1;jettySize=auto;html=1;exitX=0.5;exitY=1;exitDx=0;exitDy=0;entryX=0.5;entryY=0;entryDx=0;entryDy=0;" edge="1" parent="1" source="S7Mpnng9iP3Us5usMk4h-149" target="S7Mpnng9iP3Us5usMk4h-85">
          <mxGeometry relative="1" as="geometry" />
        </mxCell>
        <mxCell id="S7Mpnng9iP3Us5usMk4h-151" style="edgeStyle=orthogonalEdgeStyle;rounded=0;orthogonalLoop=1;jettySize=auto;html=1;exitX=0.5;exitY=1;exitDx=0;exitDy=0;" edge="1" parent="1" source="S7Mpnng9iP3Us5usMk4h-149" target="S7Mpnng9iP3Us5usMk4h-148">
          <mxGeometry relative="1" as="geometry" />
        </mxCell>
        <mxCell id="S7Mpnng9iP3Us5usMk4h-149" value="5x31 Naturaleza" style="ellipse;whiteSpace=wrap;html=1;" vertex="1" parent="1">
          <mxGeometry x="2990" y="300" width="120" height="80" as="geometry" />
        </mxCell>
      </root>
    </mxGraphModel>
  </diagram>
</mxfile>
